<svg width="11" height="11" viewBox="0 0 11 11" fill="none" xmlns="http://www.w3.org/2000/svg">
<path d="M1.74478 10.0421C1.40988 10.0421 1.12329 9.94676 0.88501 9.75613C0.646322 9.56518 0.526978 9.33575 0.526978 9.06783V3.2224C0.526978 2.95448 0.646322 2.72521 0.88501 2.53459C1.12329 2.34364 1.40988 2.24816 1.74478 2.24816H2.96257C2.96257 1.71233 3.20106 1.25362 3.67803 0.872048C4.155 0.490471 4.72838 0.299683 5.39817 0.299683C6.06796 0.299683 6.64134 0.490471 7.11831 0.872048C7.59528 1.25362 7.83377 1.71233 7.83377 2.24816H9.05157C9.38646 2.24816 9.67325 2.34364 9.91194 2.53459C10.1502 2.72521 10.2694 2.95448 10.2694 3.2224V9.06783C10.2694 9.33575 10.1502 9.56518 9.91194 9.75613C9.67325 9.94676 9.38646 10.0421 9.05157 10.0421H1.74478ZM4.18037 2.24816H6.61597C6.61597 1.98024 6.49683 1.75097 6.25855 1.56035C6.01986 1.3694 5.73307 1.27392 5.39817 1.27392C5.06328 1.27392 4.77669 1.3694 4.53841 1.56035C4.29972 1.75097 4.18037 1.98024 4.18037 2.24816ZM1.74478 9.06783H9.05157V3.2224H7.83377V4.19664C7.83377 4.33466 7.77552 4.45026 7.65902 4.54347C7.54211 4.63699 7.39739 4.68376 7.22487 4.68376C7.05235 4.68376 6.90784 4.63699 6.79133 4.54347C6.67443 4.45026 6.61597 4.33466 6.61597 4.19664V3.2224H4.18037V4.19664C4.18037 4.33466 4.12212 4.45026 4.00562 4.54347C3.88871 4.63699 3.744 4.68376 3.57147 4.68376C3.39895 4.68376 3.25444 4.63699 3.13794 4.54347C3.02103 4.45026 2.96257 4.33466 2.96257 4.19664V3.2224H1.74478V9.06783Z" fill="white"/>
</svg>
