<svg width="13" height="11" viewBox="0 0 13 11" fill="none" xmlns="http://www.w3.org/2000/svg">
<path d="M10.9588 1.00238C9.63901 -0.0542108 7.59996 0.104495 6.33725 1.32848C5.07455 0.104495 3.0355 -0.056385 1.71571 1.00238C-0.00138414 2.37855 0.249787 4.62217 1.47367 5.81137L5.47871 9.6964C5.70704 9.91815 6.01301 10.0421 6.33725 10.0421C6.66377 10.0421 6.96746 9.92032 7.1958 9.69857L11.2008 5.81355C12.4224 4.62434 12.6782 2.38072 10.9588 1.00238ZM10.4199 5.07872L6.41489 8.96374C6.36009 9.01592 6.31442 9.01592 6.25962 8.96374L2.25459 5.07872C1.42116 4.26997 1.25219 2.73944 2.42127 1.80243C3.3095 1.09151 4.67953 1.19804 5.53807 2.0307L6.33725 2.80684L7.13643 2.0307C7.99955 1.19369 9.36957 1.09151 10.2532 1.80025C11.42 2.73727 11.2465 4.27649 10.4199 5.07872Z" fill="white"/>
</svg>
