<svg width="14" height="9" viewBox="0 0 14 9" fill="none" xmlns="http://www.w3.org/2000/svg">
<path d="M6.85483 1.89766C6.62179 1.90102 6.39046 1.93519 6.16792 1.99914C6.27086 2.16625 6.32567 2.35492 6.32712 2.54715C6.32712 2.69641 6.29527 2.84421 6.23339 2.98211C6.17151 3.12001 6.08081 3.24531 5.96647 3.35086C5.85213 3.4564 5.71639 3.54012 5.567 3.59724C5.4176 3.65436 5.25749 3.68376 5.09579 3.68376C4.88754 3.68243 4.68314 3.63183 4.50211 3.53681C4.35928 3.99406 4.37593 4.48119 4.54969 4.92921C4.72345 5.37724 5.04552 5.76344 5.47028 6.03311C5.89504 6.30278 6.40094 6.44225 6.91635 6.43177C7.43175 6.42129 7.93051 6.26139 8.34199 5.97471C8.75347 5.68803 9.0568 5.28911 9.20902 4.83446C9.36123 4.3798 9.35462 3.89247 9.19012 3.44147C9.02561 2.99048 8.71155 2.5987 8.29243 2.32162C7.8733 2.04455 7.37035 1.89622 6.85483 1.89766ZM13.1109 3.87455C11.9185 1.72696 9.55783 0.273926 6.85483 0.273926C4.15184 0.273926 1.79054 1.72798 0.598784 3.87475C0.548485 3.9666 0.522278 4.06807 0.522278 4.17098C0.522278 4.2739 0.548485 4.37537 0.598784 4.46721C1.7912 6.6148 4.15184 8.06784 6.85483 8.06784C9.55783 8.06784 11.9191 6.61378 13.1109 4.46701C13.1612 4.37516 13.1874 4.27369 13.1874 4.17078C13.1874 4.06787 13.1612 3.96639 13.1109 3.87455ZM6.85483 7.0936C4.68571 7.0936 2.69711 5.97728 1.62321 4.17088C2.69711 2.36448 4.68549 1.24816 6.85483 1.24816C9.02417 1.24816 11.0126 2.36448 12.0865 4.17088C11.0128 5.97728 9.02417 7.0936 6.85483 7.0936Z" fill="white"/>
</svg>
