<svg width="20" height="22" viewBox="0 0 20 22" fill="none" xmlns="http://www.w3.org/2000/svg">
<path d="M14.2939 13.8365H13.3905L13.0703 13.4969C14.191 12.0629 14.8656 10.2013 14.8656 8.1761C14.8656 3.66038 11.538 0 7.43282 0C3.32762 0 0 3.66038 0 8.1761C0 12.6918 3.32762 16.3522 7.43282 16.3522C9.27387 16.3522 10.9663 15.6101 12.2699 14.3774L12.5786 14.7296V15.7233L18.2962 22L20 20.1258L14.2939 13.8365ZM7.43282 13.8365C4.58548 13.8365 2.28702 11.3082 2.28702 8.1761C2.28702 5.04402 4.58548 2.51572 7.43282 2.51572C10.2802 2.51572 12.5786 5.04402 12.5786 8.1761C12.5786 11.3082 10.2802 13.8365 7.43282 13.8365Z" fill="black"/>
</svg>
