<svg width="20" height="22" viewBox="0 0 20 22" fill="none" xmlns="http://www.w3.org/2000/svg">
<path d="M14.9158 10.5448C14.9621 10.2454 15 9.94056 15 9.625V5.5C15 2.46262 12.7613 0 10 0C7.23875 0 5 2.46262 5 5.5V9.625C5 9.94056 5.03785 10.2454 5.08418 10.5448C2.05934 11.7264 0 13.938 0 16.5V20.625C0 21.385 0.559062 22 1.25 22H18.75C19.4409 22 20 21.385 20 20.625V16.5C20 13.938 17.9407 11.7264 14.9158 10.5448ZM7.5 5.5C7.5 3.98131 8.61934 2.75 10 2.75C11.3806 2.75 12.5 3.98131 12.5 5.5V9.625C12.5 11.1437 11.3806 12.375 10 12.375C8.61934 12.375 7.5 11.1437 7.5 9.625V5.5ZM17.5 19.25H2.5V16.5C2.5 15.0149 3.93797 13.7245 6.07789 12.998C6.9934 14.2844 8.40086 15.125 10 15.125C11.5991 15.125 13.0066 14.2844 13.9221 12.998C16.062 13.7245 17.5 15.0149 17.5 16.5V19.25Z" fill="black"/>
</svg>
