<svg width="20" height="22" viewBox="0 0 20 22" fill="none" xmlns="http://www.w3.org/2000/svg">
<path d="M2.5 22C1.8125 22 1.22417 21.7848 0.735 21.3543C0.245 20.9231 0 20.405 0 19.8V6.6C0 5.995 0.245 5.47727 0.735 5.0468C1.22417 4.6156 1.8125 4.4 2.5 4.4H5C5 3.19 5.48958 2.15417 6.46875 1.2925C7.44792 0.430833 8.625 0 10 0C11.375 0 12.5521 0.430833 13.5312 1.2925C14.5104 2.15417 15 3.19 15 4.4H17.5C18.1875 4.4 18.7763 4.6156 19.2663 5.0468C19.7554 5.47727 20 5.995 20 6.6V19.8C20 20.405 19.7554 20.9231 19.2663 21.3543C18.7763 21.7848 18.1875 22 17.5 22H2.5ZM7.5 4.4H12.5C12.5 3.795 12.2554 3.27727 11.7663 2.8468C11.2762 2.4156 10.6875 2.2 10 2.2C9.3125 2.2 8.72417 2.4156 8.235 2.8468C7.745 3.27727 7.5 3.795 7.5 4.4ZM2.5 19.8H17.5V6.6H15V8.8C15 9.11167 14.8804 9.37273 14.6413 9.5832C14.4013 9.7944 14.1042 9.9 13.75 9.9C13.3958 9.9 13.0992 9.7944 12.86 9.5832C12.62 9.37273 12.5 9.11167 12.5 8.8V6.6H7.5V8.8C7.5 9.11167 7.38042 9.37273 7.14125 9.5832C6.90125 9.7944 6.60417 9.9 6.25 9.9C5.89583 9.9 5.59917 9.7944 5.36 9.5832C5.12 9.37273 5 9.11167 5 8.8V6.6H2.5V19.8Z" fill="black"/>
</svg>
